<?xml version="1.0" encoding="UTF-8" standalone="no"?>
<svg
   xmlns:dc="http://purl.org/dc/elements/1.1/"
   xmlns:cc="http://creativecommons.org/ns#"
   xmlns:rdf="http://www.w3.org/1999/02/22-rdf-syntax-ns#"
   xmlns:svg="http://www.w3.org/2000/svg"
   xmlns="http://www.w3.org/2000/svg"
   xmlns:sodipodi="http://sodipodi.sourceforge.net/DTD/sodipodi-0.dtd"
   xmlns:inkscape="http://www.inkscape.org/namespaces/inkscape"
   version="1.1"
   id="Capa_1"
   x="0px"
   y="0px"
   width="115.3px"
   height="115.3px"
   viewBox="0 0 115.3 115.3"
   style="enable-background:new 0 0 115.3 115.3;"
   xml:space="preserve"
   sodipodi:docname="two.svg"
   inkscape:version="1.0.2 (e86c870879, 2021-01-15, custom)"><metadata
   id="metadata94"><rdf:RDF><cc:Work
       rdf:about=""><dc:format>image/svg+xml</dc:format><dc:type
         rdf:resource="http://purl.org/dc/dcmitype/StillImage" /><dc:title></dc:title></cc:Work></rdf:RDF></metadata><defs
   id="defs92" /><sodipodi:namedview
   pagecolor="#ffffff"
   bordercolor="#666666"
   borderopacity="1"
   objecttolerance="10"
   gridtolerance="10"
   guidetolerance="10"
   inkscape:pageopacity="0"
   inkscape:pageshadow="2"
   inkscape:window-width="1280"
   inkscape:window-height="902"
   id="namedview90"
   showgrid="false"
   inkscape:zoom="3.8164484"
   inkscape:cx="75.251498"
   inkscape:cy="96.435796"
   inkscape:window-x="-6"
   inkscape:window-y="-6"
   inkscape:window-maximized="1"
   inkscape:current-layer="g57" />
<g
   id="g57">
	<path
   d="M47.9,14.306L26,30.706H6c-3.3,0-6,2.7-6,6v41.8c0,3.301,2.7,6,6,6h20l21.9,16.4c4,3,9.6,0.2,9.6-4.8v-77   C57.5,14.106,51.8,11.306,47.9,14.306z"
   id="path53"
   style="fill:#ffffff" />
	<path
   d="m 71.273454,23.319929 c -2.7,-2.7 -7.2,-2.7 -9.899,0 -2.7,2.7 -2.7,7.2 0,9.9 13,13 13,34.101 0,47.101 -2.7,2.7 -2.7,7.2 0,9.899 1.399,1.4 3.199,2 4.899,2 1.7,0 3.601,-0.699 4.9,-2.1 18.6,-18.3 18.6,-48.3 0.1,-66.8 z"
   id="path55"
   style="fill:#ffffff" />
<path
   d="m 89.313709,7.4974951 c -3.385885,-3.8271543 -9.029027,-3.8271543 -12.413659,0 -3.385885,3.8271549 -3.385885,10.2057459 0,14.0329009 16.302416,18.42704 16.302416,48.336962 0,66.763999 -3.385885,3.827158 -3.385885,10.205747 0,14.031475 1.754391,1.98446 4.011649,2.83494 6.143502,2.83494 2.131854,0 4.515767,-0.99081 6.144755,-2.97668 C 112.51329,76.244531 112.51329,33.720591 89.313709,7.4974951 Z"
   id="path55-5"
   style="stroke-width:1.33325;fill:#ffffff" /></g>
<g
   id="g59">
</g>
<g
   id="g61">
</g>
<g
   id="g63">
</g>
<g
   id="g65">
</g>
<g
   id="g67">
</g>
<g
   id="g69">
</g>
<g
   id="g71">
</g>
<g
   id="g73">
</g>
<g
   id="g75">
</g>
<g
   id="g77">
</g>
<g
   id="g79">
</g>
<g
   id="g81">
</g>
<g
   id="g83">
</g>
<g
   id="g85">
</g>
<g
   id="g87">
</g>
</svg>
